# xmcd
#
# Track frame offsets:
#  150
#  21611
#  34814
#  69497
#  96981
#  144934
#  164942
#  183706
#  210545
#  224731
#  245494
#  264587
#
# Disc length: 3934 seconds
#
# Revision: 0
# Processed by: cddbd v1.5.1PL2 Copyright (c) Steve Scherf et al.
# Submitted via: Collectorz.com_Music_Collector 6.11
#
DISCID=c40f5c0c
DTITLE=The Chris Finnen Band - Electric Number One
DYEAR=2006
DGENRE=Blues -  Blues Electric -  Blues Guitar
TTITLE0=Hat Coat And Shoes
TTITLE1=You Don't Love Me
TTITLE2=32-20 Blues
TTITLE3=Hey Joe
TTITLE4=Finnen's Blues
TTITLE5=Keep Your Oven Warm
TTITLE6=Fool No More
TTITLE7=Nuclear Wasted
TTITLE8=Amazing Grace
TTITLE9=You Know It Ain't Right
TTITLE10=Mercury Blues
TTITLE11=Li'l Wing
EXTD=
EXTT0=
EXTT1=
EXTT2=
EXTT3=
EXTT4=
EXTT5=
EXTT6=
EXTT7=
EXTT8=
EXTT9=
EXTT10=
EXTT11=
PLAYORDER=
